<svg xmlns="http://www.w3.org/2000/svg" xmlns:xlink="http://www.w3.org/1999/xlink" fill="none" version="1.1" width="109.43359375" height="112.0625" viewBox="0 0 109.43359375 112.0625"><defs><mask id="master_svg0_1981_71055" style="mask-type:alpha" maskUnits="objectBoundingBox"><g><g><rect x="0" y="0" width="109.43341827392578" height="112.06222534179688" rx="0" fill="#0052D9" fill-opacity="1"/></g></g></mask><mask id="master_svg1_1981_71061" style="mask-type:alpha" maskUnits="objectBoundingBox"><g><g><rect x="0" y="0" width="109.43341827392578" height="112.06222534179688" rx="0" fill="#0052D9" fill-opacity="1"/></g></g></mask><mask id="master_svg2_1981_71068" style="mask-type:alpha" maskUnits="objectBoundingBox"><g><g><rect x="0" y="0" width="109.43341827392578" height="112.06222534179688" rx="0" fill="#0052D9" fill-opacity="1"/></g></g></mask></defs><g><g><g><g mask="url(#master_svg0_1981_71055)"><g><g><g><g mask="url(#master_svg1_1981_71061)"><g><g><g><path d="M14.0405896484375,92.02444219055175C17.4327896484375,92.02444219055175,20.5710896484375,91.96534219055175,23.7051896484375,92.06844219055176C24.4373896484375,92.09414219055176,25.2520896484375,92.54354219055176,25.8530896484375,93.01804219055175C30.0833896484375,96.36254219055176,34.6732896484375,99.06164219055175,39.7562896484375,100.89514219055175C47.9902896484375,103.86424219055176,56.4190896484375,104.58604219055175,65.0319896484375,103.00344219055175C66.4836896484375,102.73534219055176,67.9265896484375,102.40034219055175,69.3528896484375,102.01154219055175C69.6299896484375,101.93594219055176,69.8119896484375,101.47994219055175,70.0153896484375,101.18424219055176C70.0640896484375,101.11274219055176,70.0237896484375,100.97794219055176,70.0237896484375,100.87244219055175C70.0237896484375,81.73734219055176,70.0237896484375,62.60234219055176,70.0237896484375,43.46744219055176C70.0237896484375,43.19304219055176,70.0237896484375,42.92084219055175,70.0237896484375,42.57684219055176C61.4491896484375,51.12934219055175,52.9463896484375,59.61004219055176,44.3651896484375,68.16684219055176C33.7019896484375,57.52534219055176,23.2120896484375,47.05884219055176,12.7074896484375,36.57554219055176C9.6432096484375,41.55764219055176,7.2180596484375,52.889242190551755,8.9025696484375,63.48434219055176C10.3880896484375,72.82814219055176,14.4066896484375,80.97134219055175,20.6641896484375,88.24944219055176C20.1965896484375,88.28284219055176,19.9044896484375,88.32334219055176,19.6124896484375,88.32514219055176C17.1089896484375,88.32924219055175,14.6035896484375,88.27854219055176,12.1000896484375,88.34834219055176C10.7753896484375,88.38654219055175,9.9225596484375,87.84164219055175,9.2242096484375,86.77654219055175C5.7790996484375,81.53044219055175,3.1783296484375,75.91114219055176,1.7202996484375,69.80014219055175C-1.0391903515625,58.24274219055176,-0.5778643515625,46.860542190551755,3.8152996484375,35.74424219055176C5.6563596484375,31.087062190551755,8.0772396484375,26.729572190551757,11.0673896484375,22.675952190551758C16.6265896484375,28.170832190551756,22.1603896484375,33.62134219055176,27.6708896484375,39.095142190551755C33.1919896484375,44.57734219055176,38.6896896484375,50.08054219055175,44.2595896484375,55.634542190551755C55.6805896484375,44.20594219055176,67.0487896484375,32.82794219055176,78.6046896484375,21.260042190551758C78.6724896484375,21.79391319055176,78.7318896484375,22.045021190551758,78.7318896484375,22.294022190551757C78.7361896484375,48.711142190551755,78.7361896484375,75.12614219055176,78.7361896484375,101.54304219055176C78.7361896484375,102.84314219055176,78.7146896484375,104.14494219055176,78.7384896484375,105.44504219055176C78.7634896484375,106.85654219055176,78.0991896484375,107.78514219055175,76.8037896484375,108.27274219055175C71.1983896484375,110.38704219055175,65.4232896484375,111.72884219055176,59.4218896484375,111.99294219055176C50.9677896484375,112.36604219055175,42.7739896484375,111.13634219055176,34.9186896484375,107.93074219055175C27.4655896484375,104.89184219055176,21.0408896484375,100.34264219055176,15.4732896484375,94.57734219055176C14.8468896484375,93.93604219055176,14.5548896484375,92.96984219055176,14.0405896484375,92.02444219055175Z" fill="#0052D9" fill-opacity="1"/></g></g></g></g></g><g><g mask="url(#master_svg2_1981_71068)"><g><g><g><path d="M20.970955280761718,23.99736031856537C18.73837528076172,21.90196031856537,16.78727528076172,20.07256031856537,14.732475280761719,18.141560318565368C27.387175280761717,5.214800318565369,42.462675280761715,-1.3921096814346314,60.57287528076172,0.24115731856536865C84.27807528076171,2.3787503185653684,100.09057528076171,15.21486031856537,109.43517528076171,36.99806031856537C106.71597528076173,36.99806031856537,104.33937528076171,37.10786031856537,101.98177528076172,36.953760318565365C100.67877528076171,36.86936031856537,99.88467528076171,35.79096031856537,99.22457528076171,34.69796031856537C97.90007528076171,32.50126031856537,96.63437528076172,30.262360318565367,95.17437528076172,28.158560318565367C91.26807528076172,22.53286031856537,86.37507528076172,17.93696031856537,80.39307528076172,14.533260318565368C74.45697528076172,11.154860318565369,68.04517528076173,9.28952031856537,61.28177528076172,8.57208031856537C54.54817528076172,7.8567303185653685,47.92677528076172,8.354750318565369,41.45117528076172,10.443760318565369C34.478475280761714,12.693260318565368,28.481275280761718,16.527360318565368,23.19501528076172,21.524260318565368C22.35070528076172,22.319860318565368,21.63754528076172,23.24816031856537,20.970955280761718,23.99736031856537Z" fill="#0052D9" fill-opacity="1"/></g></g></g></g></g><g><g><g><g><g><path d="M82.33973265078124,105.80984146728515C82.33973265078124,103.39794146728516,82.30376055078125,101.25604146728516,82.35031825078126,99.11854146728516C82.39687595078125,96.85644146728515,83.62001705078124,95.20414146728515,85.37432705078125,93.94644146728515C91.24458705078125,89.74094146728515,95.62927705078125,84.29669146728516,98.93467705078125,77.93879146728516C99.53997705078125,76.77397846728516,100.42247705078125,76.14937096728515,101.79367705078124,76.17680537828515C104.07907705078125,76.22322476728516,106.36877705078125,76.18946906728516,108.85967705078124,76.18946906728516C103.54797705078124,89.20704146728515,94.77217705078125,98.90754146728516,82.33973265078124,105.80984146728515Z" fill="#0052D9" fill-opacity="1"/></g></g></g></g></g></g></g></g></g></g></g></svg>