<svg xmlns="http://www.w3.org/2000/svg" viewBox="0 0 392.6 434.42"><g id="图层_2" data-name="图层 2"><g id="图层_1-2" data-name="图层 1"><path d="M200,434.3c-98.89-.17-183.1-72.73-197.76-169.41C-12.81,165.44,48.41,69.77,144.58,42.5c13.3-3.77,24.51,1.3,28.51,12.91,4.16,12.09-2.42,24-15.66,27.77a150.29,150.29,0,0,0-40.15,17.6C73.36,128.93,48.22,169,43.43,221c-7.12,77.17,43.74,149.76,124.12,167.33C234.61,403,307,369.23,338.42,308.25c30.5-59.16-1.91-133.69-65.84-151.42-8.57-2.38-8.75-2.18-6.73,6.25,4.69,19.6,10.06,39.07,13.85,58.85,8.11,42.31-23.24,85.81-65.89,92.46-46.43,7.24-87.66-22.33-94.33-68.78-3.9-27.19,3-52.69,17.31-76,16.13-26.27,39-44.38,68.44-53.78,4-1.27,4.64-3,3.73-6.82-3-12.62-7.23-25-8.12-38.05C198.58,37.71,222.06,7.4,254.9,1.18a67.27,67.27,0,0,1,76.83,46.65c3.94,13.19-1.54,24.86-13.45,28.62S295.19,73.74,291,60.56c-4.31-13.48-16.76-20.48-30.14-16.94-12.24,3.23-19.78,15.69-17,28.89,2.42,11.4,5.5,22.66,8.16,34,.68,2.89,2.21,4,5.16,4.29,69.24,6.84,124.69,59.86,134,128.66,6,44.81-7.06,84.38-35.17,119.21-35,43.36-80.5,67.85-135.68,74.44C213.22,434,206.06,434.73,200,434.3ZM161.33,231.8c0,3.65-.12,7.31.69,10.93,4.61,20.54,24.64,33.83,44.75,29.66C228.53,267.87,242,248,237.22,226.6c-4.92-21.92-10.61-43.66-15.73-65.54-1.09-4.68-3.16-4.83-7.07-3.44C183.66,168.52,161.82,198.93,161.33,231.8Z"/></g></g></svg>