<svg xmlns="http://www.w3.org/2000/svg" viewBox="0 0 281.24 131.92"><g id="图层_2" data-name="图层 2"><g id="图层_1-2" data-name="图层 1"><path d="M140.5,131.91h-79l-2.85,0c-.49,0-1,.06-1.35-.43-.18-.24-.59-.16-.9-.18-.63-.05-1.26-.05-1.9-.06a1,1,0,0,1-.89-.35c-.32-.39-.85-.18-1.28-.27-.63-.15-1.32.07-1.89-.52-.2-.21-.77-.08-1.18-.1s-1.13.05-1.52-.52c-.13-.2-.41-.13-.64-.14-.44,0-.88.06-1.13-.5-.13-.28-.54-.16-.82-.18s-.71,0-.89-.44-.46-.21-.72-.23c-.6,0-1.24.07-1.64-.56-.1-.16-.34-.09-.51-.12s-.41,0-.44-.12c-.24-.68-.81-.52-1.3-.57-.21,0-.44,0-.53-.25a.68.68,0,0,0-.69-.43c-.09,0-.24,0-.26-.06-.3-.75-1-.54-1.55-.62a.48.48,0,0,1-.42-.3c0-.08-.09-.23-.12-.22-.76.08-1.12-.64-1.73-.88a8.5,8.5,0,0,1-1.75-.94,6.56,6.56,0,0,0-1.5-.9,4,4,0,0,1-1.37-1,.88.88,0,0,0-.6-.35c-.26,0-.49-.08-.56-.39a.35.35,0,0,0-.34-.27c-.68-.1-1-.71-1.42-1.1-.07-.07-.11-.2-.23-.22-1-.11-1.37-1.11-2.07-1.64-.09-.07-.12-.29-.25-.29-.72,0-1-.74-1.69-.86-.39-.07-.46-.51-.7-.76a22.42,22.42,0,0,1-2.72-3,.33.33,0,0,0-.22-.14c-.46,0-.64-.34-.93-.63a28.19,28.19,0,0,1-2.1-2.29,9.34,9.34,0,0,1-2-2.8c-.2-.62-.85-1.07-1.26-1.63-.55-.74-1.41-1.23-1.62-2.29a2.46,2.46,0,0,0-.84-1.17,1.72,1.72,0,0,1-.82-1.29c0-.54-.49-.77-.72-1.15a1.68,1.68,0,0,1-.43-.85c0-.47-.43-.6-.61-.93-.49-.87-.74-1.88-1.27-2.67-.38-.57-.27-1.37-.92-1.77-.09-.06-.09-.29-.11-.44,0-.32,0-.64-.37-.81-.05,0-.13-.11-.12-.15.13-.81-.44-1.41-.76-2s-.31-1.46-.9-2A.85.85,0,0,1,3,86.72c-.07-.6.12-1.28-.5-1.72.13-1.23-.9-2.2-.75-3.43a1,1,0,0,0-.37-1c-.26-.18-.13-.55-.17-.84-.07-.64.2-1.35-.45-1.88-.12-.09-.08-.38-.08-.58,0-.59,0-1.18,0-1.76,0-.34,0-.68-.34-.9-.15-.08-.15-.27-.16-.43C.09,73.44,0,72.72,0,72q0-6.23,0-12.47c0-.59-.06-1.22.51-1.67.11-.08.1-.33.11-.51,0-.67,0-1.35,0-2a1.84,1.84,0,0,1,.4-1.43c.32-.32.1-.91.14-1.38s-.1-1,.42-1.27a.15.15,0,0,0,.06-.11,5.81,5.81,0,0,1,.66-2.58c.18-.48,0-1.07.51-1.46.14-.09.08-.47.1-.71,0-.4,0-.82.4-1.08.17-.1.13-.32.14-.5a1,1,0,0,1,.38-.95c.19-.13.16-.37.18-.57.07-.5,0-1.05.55-1.37a.2.2,0,0,0,.06-.12c-.15-.79.45-1.38.7-2a6.55,6.55,0,0,1,1.44-2.55c.05,0,.14-.1.13-.14-.11-.74.58-1.15.72-1.81A1.87,1.87,0,0,1,8.56,34a.35.35,0,0,0,.2-.33c.07-1.08.88-1.69,1.55-2.39.07-.08.18-.17.18-.26,0-1.11.95-1.66,1.51-2.44,0-.06.12-.09.13-.15a6.32,6.32,0,0,1,1.94-2.83,37,37,0,0,1,2.7-3c.45-.38.76-1,1.23-1.43a14,14,0,0,0,1.72-1.82c.68-.84,1.73-1.21,2.33-2,.8-1.1,2.07-1.58,2.93-2.55a5.82,5.82,0,0,1,2.16-1.44,1.29,1.29,0,0,0,.53-.56c.39-.62,1.3-.47,1.58-1.18a.21.21,0,0,1,.17-.09c.83.06,1.09-.81,1.69-1.06s1-1,1.83-1c.44,0,.67-.47,1-.67a7.93,7.93,0,0,0,1.74-1c.37-.38,1.07-.23,1.35-.79,1,.11,1.66-.88,2.66-.93a3.17,3.17,0,0,0,1.54-.77,2.68,2.68,0,0,1,1.55-.44c.36,0,.72,0,.89-.42s.46-.22.72-.24c.42,0,.85.06,1.08-.48.11-.28.48-.18.74-.2s.81,0,1-.44c.13-.28.48-.21.74-.23.65-.05,1.3.09,1.88-.48.35-.35,1-.18,1.51-.2s.88,0,1.2-.42c.16-.23.53-.23.82-.24.5,0,1,0,1.5,0s.87,0,1.21-.41c.18-.24.57-.22.89-.23.63,0,1.26,0,1.89,0a2.17,2.17,0,0,0,1.3-.37,2.9,2.9,0,0,1,1.7-.24c.71,0,1.4,0,2.1,0H216.75c1.29,0,2.57.08,3.85.13.11,0,.27,0,.33,0,.66.76,1.55.4,2.34.48.52,0,1.14-.16,1.53.13,1,.71,2.09.48,3.15.58.11,0,.27,0,.31.1.45.73,1.18.51,1.83.55s1.36-.09,1.85.56c.08.11.34.09.51.1.65,0,1.32-.07,1.78.58.09.11.38.09.58.1.44,0,.89-.06,1.14.5.12.28.53.15.81.18s.71,0,.89.43.51.19.79.24c.56.08,1.26-.23,1.58.56a.11.11,0,0,0,.11.06c.77-.12,1.37.47,1.81.82.69.55,1.74.23,2.21,1.07.8-.15,1.23.61,1.84.88s1.26.38,1.57,1c.1.19.3.19.48.2.34,0,.63.06.73.45a.34.34,0,0,0,.33.21c.35,0,.68.07.78.5,0,0,.06.1.08.09.78-.12,1.06.76,1.78.85.43.05.59.64,1,.85.67.32,1.11,1,1.91,1.14.38,0,.38.4.58.6a15.82,15.82,0,0,0,2.55,2c.27.17.37.45.54.67.5.62,1.32.77,1.8,1.37s.93,1,1.28,1.54a2.37,2.37,0,0,0,1,.9c.93.35,1.24,1.23,1.88,1.8a39.58,39.58,0,0,1,2.65,3c.11.13.33.18.33.39,0,1.1,1.07,1.51,1.52,2.32s1.32,1.29,1.52,2.26c.07.39.43.65.65.88.88.9,1.08,2.25,2.08,3a.29.29,0,0,1,.07.19c.15,1.17,1,2,1.44,3a16.53,16.53,0,0,1,1,2.13,6.16,6.16,0,0,0,.78,1.69c.2.3.21.68.39.86.71.76.18,1.94,1,2.64a.64.64,0,0,1,.11.32c.08.44.36.86.41,1.24.16,1,.83,1.86.79,2.9,0,.34,0,.67.35.89s.17.45.19.69a3,3,0,0,0,.49,2,.33.33,0,0,1,0,.2c0,1.75.92,3.37.69,5.16a1.24,1.24,0,0,0,.4,1.34c.18.13.11.43.11.65V71.83a.93.93,0,0,1-.35.9c-.21.14-.15.41-.16.63,0,.7,0,1.4,0,2.1a1.62,1.62,0,0,1-.34,1.14,1,1,0,0,0-.18.7,6.15,6.15,0,0,1-.53,3,2.43,2.43,0,0,0-.14,1c0,.5.08,1-.45,1.41-.1.07-.08.34-.1.51-.05.55.12,1.14-.46,1.55-.11.08-.08.38-.09.58a.81.81,0,0,1-.3.71.65.65,0,0,0-.24.54c-.07.55,0,1.13-.56,1.52-.1.07-.09.33-.1.51s0,.59-.35.75c-.05,0-.13.1-.13.14.15.8-.43,1.4-.72,2a6.49,6.49,0,0,1-.93,1.93s-.12.11-.11.16c.1.76-.78,1.18-.66,2,0,.18-.1.32-.29.4s-.25.12-.26.2a5.14,5.14,0,0,1-1.11,2.1c-.23.37-.35.81-.58,1.2a18.77,18.77,0,0,1-2.48,3.67,1.84,1.84,0,0,0-.57,1.1c-.06.41-.43.69-.67,1-.78.85-1.47,1.77-2.23,2.62s-1.54,1.82-2.36,2.68c-1,1.06-2,2.15-2.92,3.26a.56.56,0,0,1-.27.19c-1,.19-1.32,1.07-1.93,1.66-.41.4-.73.91-1.32,1a1.82,1.82,0,0,0-1,.75c-.47.61-1.21.76-1.67,1.27-.61.66-1.62.84-2,1.74a.44.44,0,0,1-.41.21c-.35,0-.66.07-.79.49-.06.19-.29.19-.47.2a.6.6,0,0,0-.58.38c0,.09-.15.22-.23.22-.84,0-1.19.74-1.73,1.18-.07,0-.16.13-.24.12a3.43,3.43,0,0,0-2.08.87c-.53.32-1.3.33-1.6,1-.05.13-.22.15-.35.15-.37,0-.7,0-.87.47s-.48.19-.74.21-.84-.06-1,.49c0,0,0,.06,0,0-.83-.08-1.21.93-2,.83a.65.65,0,0,0-.78.4c0,.08-.14.18-.19.17-1.07-.2-1.78.89-2.82.78-.13,0-.34,0-.39.08-.42.69-1.12.55-1.76.6-.15,0-.37,0-.44.11-.45.61-1.11.5-1.72.55a2.41,2.41,0,0,0-1.63.42c-.38.31-1.12.2-1.7.25-.38,0-.77,0-1,.38-.13.21-.41.16-.63.17l-2,.11a1.06,1.06,0,0,0-.95.4c-.18.26-.54.17-.83.17-2.59,0-5.19,0-7.79,0H140.5Zm49.4-44.67V99.85a1.2,1.2,0,0,0,1.35,1.35h9.49c.45,0,.9,0,1.36,0s1.18-.9.91-1.23a1.59,1.59,0,0,1-.25-1.09V76.25a4.62,4.62,0,0,1,.4-2.28c.24-.45.45-.65,1-.65,6.62,0,13.24,0,19.86,0,.22,0,.5,0,.64.14.41.57,1.14.58,1.68,1A3.19,3.19,0,0,1,227.7,77c.06,3,0,6,0,8.94a4.71,4.71,0,0,1-.41,2.35,1.63,1.63,0,0,1-1.75,1H213.41c-.86,0-1.09.36-.71,1.13A7.26,7.26,0,0,1,213.79,93a.3.3,0,0,0,.1.17c.6.48.58,1.29.89,1.91s.9,1.13.8,1.91c0,0,0,.09.07.11.63.49.53,1.33.92,2a13.49,13.49,0,0,0,1,1.56c.25.3.41.62.93.61,3.28,0,6.56,0,9.83,0,.22,0,.49.06.63-.15.31-.49.79-.47,1.26-.47l2,0c.18,0,.44,0,.51-.11.35-.74,1.2-.61,1.75-1.06s1.41-.84,2.08-1.38a21.18,21.18,0,0,0,2-2.23c.23-.25.65-.5.67-1,0-.74.84-1.22.72-2,0,0,.06-.13.11-.15.39-.19.36-.54.36-.88V71.37c0-.2,0-.47-.1-.58-.75-.72-.37-1.83-1-2.66-.32-.45-.62-1-1-1.43s-1-1.09-1.42-1.67a7.22,7.22,0,0,0-2.64-2.2c-.67-.35-1.28-1-2.15-.86a.28.28,0,0,1-.24-.1c-.36-.63-1-.44-1.51-.47s-1,.1-1.36-.26a1.39,1.39,0,0,0-1.21-.4h-1.49c-1.13,0-1.13,0-1.13-1.13V48.43c0-.29.11-.66-.12-.85-.48-.4-.39-.92-.41-1.43s.17-1-.12-1.24c-.61-.53-.58-1.31-.88-1.93a20.71,20.71,0,0,0-1.61-2.35A12.46,12.46,0,0,0,220.59,39c-.36-.38-.6-1-1.33-1a.31.31,0,0,1-.27-.17c-.14-.39-.44-.46-.8-.48-.14,0-.29,0-.33-.19-.14-.52-.55-.44-.93-.47s-.67.1-.8-.21c-.2-.48-.57-.44-.95-.44-3.46,0-6.91,0-10.37,0-.85,0-1.49,0-1.78-1.09a3.31,3.31,0,0,1,0-2.51c.3-.6.1-1-.53-1h-12c-.43,0-.6.18-.6.61,0,.88,0,1.76,0,2.65s-.46,1.34-1.38,1.35c-2.17,0-4.34,0-6.51,0-.62,0-.82.21-.82.83,0,3.61,0,7.22,0,10.84,0,.9,0,.91.91.92,2.28,0,4.56,0,6.84,0,.92,0,1,0,1,.95,0,3.37,0,6.73,0,10.1,0,1,0,1.06-1.06,1.06H177.94c-1,0-1.44.43-1.44,1.47v10c0,1.16,0,1.16,1.2,1.16h10.77a1.28,1.28,0,0,1,1.43,1.44Q189.92,81,189.9,87.24Zm-34.71,14q10.47,0,20.94,0c.62,0,.89-.17.89-.83,0-3.7,0-7.41,0-11.11a.73.73,0,0,0-1-.77,4.63,4.63,0,0,1-1.28.12h-8.81c-1.3,0-1.81-.52-1.81-1.84V59.68c0-3.39,0-6.78,0-10.17,0-.66.21-.91.9-.9,2,0,4.06,0,6.09,0,1.31,0,1.3,0,1.3-1.28q0-4.89,0-9.76c0-.31-.09-.65.25-.86.17-.11.27-.25.19-.45s-.29-.21-.46-.21c-.75,0-1.49,0-2.24,0h-26.5c-.53,0-1,0-1,.76q0,5.49,0,11c0,.7.25.87.91.86,2.08,0,4.16,0,6.24,0,1,0,1,0,1,1q0,18.74,0,37.48a1.52,1.52,0,0,1-1.56,1.55h-8.61a3.64,3.64,0,0,1-.67,0c-.81-.17-1.39,0-1.71.65s-.88,1-.78,1.7a.35.35,0,0,1-.13.3c-.75.38-.63,1.26-.92,1.87s-.93,1.16-.83,2a.28.28,0,0,1-.11.16c-.59.48-.6,1.27-.86,1.89a21.33,21.33,0,0,1-1.1,2.19,2.17,2.17,0,0,0-.15,1.63c.12.47.62.27.95.27Zm-76-40.51h0V32.37c0-.91,0-.93-1-.93h-11c-1.43,0-1.33-.11-1.33,1.31q0,27.38,0,54.75c0,1.38-.45,1.84-1.82,1.84H57.21c-.54,0-.8.18-.61.71a6.81,6.81,0,0,0,.77,1.76,7.77,7.77,0,0,1,.85,2c.25.67.6,1.32.89,2,.2.43.21,1,.54,1.29.6.52.49,1.31.88,1.92a17,17,0,0,0,1.13,1.72c.22.26.34.53.77.52,1.53,0,3.07,0,4.6,0,.21,0,.43,0,.56-.18.26-.41.67-.42,1.08-.44.6,0,1.21,0,1.82,0,.18,0,.44,0,.52-.11.42-.84,1.68-.22,2-1.18,0-.05.21-.05.32-.06a.7.7,0,0,0,.67-.43c.2-.34.55-.78.88-.83.77-.11.94-.77,1.4-1.15s.52-1,.87-1.46,1-.92.89-1.68a.38.38,0,0,1,.12-.3c.49-.26.38-.72.4-1.13a4.73,4.73,0,0,1,.23-2.13,2.73,2.73,0,0,0,.32-1.48Zm44.69,21.85H132c.26,0,.65.1.7-.24a5.86,5.86,0,0,1,.56-1.3c.14-.37.6-.47.57-.87,0-.75.77-1.19.68-2a.25.25,0,0,1,.12-.15c.46-.14.44-.51.45-.88,0-.2,0-.42.22-.53s.3-.42.33-.69,0-.44.1-.51c.69-.45.48-1.31,1-1.91s.63-1.61,1.14-2.34a.22.22,0,0,0-.16-.36,3.13,3.13,0,0,0-.61,0h-6c-.79,0-1.6.12-2.09-.8-.22-.41-.36-1,0-1.32a.86.86,0,0,0,.3-.64,1.08,1.08,0,0,1,.11-.58,13.77,13.77,0,0,0,1.08-2.26,3.64,3.64,0,0,0,.67-1.67s.06-.07.09-.1a4.16,4.16,0,0,0,.85-1.74A5.79,5.79,0,0,1,133,60a13.29,13.29,0,0,0,.86-2c.28-.57.83-1.12.7-1.87,0,0,.05-.08.08-.1.77-.42.66-1.32,1-2a18.25,18.25,0,0,0,.81-2c.26-.83,1-1.53,1.08-2.46a.62.62,0,0,1,.07-.19c.09-.19.48-.22.32-.51s-.48-.19-.74-.19H128c-.29,0-.59,0-.88,0a1.31,1.31,0,0,1-1.31-.94A1.93,1.93,0,0,1,126.1,46a8.21,8.21,0,0,0,.85-1.82c.12-.31.24-.59.38-.88.23-.45.7-.74.74-1.3s.72-1.11.67-1.82c0,0,.12-.13.2-.16a.47.47,0,0,0,.32-.53c0-.76.78-1.24.67-2,0,0,0-.07.09-.09.54-.4.26-1.32,1-1.61,0,0,0-.13,0-.19-.06-.76.79-1.24.65-2,0,0,0-.08.08-.1.35-.15.39-.46.39-.79s.06-.54.38-.65a.26.26,0,0,0,.2-.31c0-.16-.17-.2-.31-.21a3.85,3.85,0,0,0-.48,0H120.29l-.47,0c-.2,0-.38.11-.37.33.06.73-.8,1.14-.63,1.91,0,0,0,.13-.08.18a7.31,7.31,0,0,0-1.66,3.25.43.43,0,0,1-.2.26.55.55,0,0,0-.29.57c0,.73-.79,1.18-.69,1.95,0,.05-.15.15-.25.2s-.28.19-.26.36c.08.75-.81,1.18-.63,2a.21.21,0,0,1-.1.17c-.43.18-.4.56-.42.92a.54.54,0,0,1-.18.42c-.69.45-.62,1.3-.94,1.93s-.63,1.33-.93,2-.58,1.22-.78,1.77-.61,1.26-.85,1.91a6.7,6.7,0,0,1-.64,1.59,3.31,3.31,0,0,0-1,2.08.86.86,0,0,1-.18.57,1.75,1.75,0,0,0-.28,1.73c.13.54.55,1,.66,1.6,0,.08.24.1.36.17.54.28,1.1.57,1.59.89a2.15,2.15,0,0,0,1.29.38h7c.2,0,.44,0,.53.24s-.06.38-.25.49-.18.34-.2.54,0,.48-.15.65a3.38,3.38,0,0,0-1,2.2,1,1,0,0,1-.22.56c-.43.51-1,1-.92,1.74a.39.39,0,0,1-.14.29c-.38.18-.39.52-.39.86a1.21,1.21,0,0,1-.31.63,4.94,4.94,0,0,0-.85,1.72c-.13.72-.81,1.23-.71,2,0,0,0,.08-.09.09-.36.16-.35.49-.37.8s-.06.5-.34.61a.34.34,0,0,0-.26.35c.14.78-.77,1.2-.65,2,0,.06-.08.17-.15.21-.36.18-.33.5-.35.82a1.33,1.33,0,0,1-.12.65c-.47.56-.54,1,0,1.57.09.08.07.3.08.46a1,1,0,0,0,.29.63c.52.6.94,1.29,1.83,1.4a.13.13,0,0,1,.1.08c.2.45.61.4,1,.4ZM50.15,48.79H44.8c-1.11,0-1.55.42-1.55,1.51l0,4.94A2.23,2.23,0,0,1,43,56.55a1.68,1.68,0,0,0-.29.88c-.18,2.12-.06,4.24-.13,6.36,0,.27.08.59-.17.76s-.34.61-.34,1c0,1.87,0,3.75,0,5.62,0,.25.08.56-.14.71-.42.28-.36.69-.37,1.09a10.84,10.84,0,0,0,0,1.89c.23,1.47-.66,2.72-.71,4.13,0,.2-.22.26-.32.4a.83.83,0,0,0,0,1.16,3.35,3.35,0,0,1,.95,1.84c.24.66.87,1.21.71,2,0,0,0,.07.08.11a4.29,4.29,0,0,1,1.1,1.82,5.33,5.33,0,0,0,.64,1.53,11.66,11.66,0,0,1,1,2.1,13.59,13.59,0,0,1,.8,1.77c.31.82.77,1.61,1,2.46.17.51.62.56.82.36s.76-.59.79-1.06a2.62,2.62,0,0,1,.89-1.57c.25-.3.74-.69.75-.86,0-.72.56-1.18.71-1.81s.7-1.07.64-1.76c0,0,.08-.12.14-.13.41-.11.39-.44.42-.75s0-.46.17-.56c.38-.2.35-.54.38-.87,0-.16,0-.39.11-.44.52-.31.41-.81.43-1.27,0-.24-.06-.56.13-.71.5-.39.41-.91.43-1.42s0-1,.31-1.27a1,1,0,0,0,.33-.83c0-1,0-2.08,0-3.12,0-.24,0-.53.2-.68s.3-.53.3-.84c0-1.92,0-3.84,0-5.76A2.24,2.24,0,0,1,55,67.5a1.78,1.78,0,0,0,.29-1.08c0-1.9-.07-3.8.13-5.69,0-.24-.06-.55.15-.7.42-.29.36-.69.37-1.09q0-3,0-6c0-.29-.07-.62.22-.82a.74.74,0,0,0,.29-.71c0-.61,0-1.22,0-1.82s-.22-.79-.8-.78C53.86,48.8,52,48.79,50.15,48.79Zm44.72,0c-1.87,0-3.75,0-5.62,0-.6,0-.84.38-1.13.71s.14.48.28.7a1.27,1.27,0,0,1,.11.52c.24,1.89.08,3.79.14,5.68,0,.29-.07.62.13.86a2.24,2.24,0,0,1,.39,1.54c0,1.69,0,3.38,0,5.08,0,.24-.08.55.15.7.39.27.36.64.36,1,0,1.86,0,3.71,0,5.56,0,.28-.09.61.21.81a.77.77,0,0,1,.29.71c.08,1.51.18,3,.14,4.53,0,.25-.07.54.1.73A2.62,2.62,0,0,1,91,79.78c0,.44-.13,1.07.11,1.31.53.52.39,1.1.45,1.68,0,.16,0,.38.11.44.54.37.48.94.54,1.46,0,.18,0,.4.16.5.37.19.38.52.39.86a.64.64,0,0,0,.16.51,4.35,4.35,0,0,1,.84,1.92c.25.66,1,1.12.85,1.92.87.63.87,1.81,1.62,2.53a6.33,6.33,0,0,1,1.22,1.54c0,.1.27.13.28,0,.08-.45.71-.55.68-1a3.71,3.71,0,0,1,.84-2c.36-.61.49-1.32.83-1.93a3.61,3.61,0,0,0,.8-1.91.33.33,0,0,1,.12-.23c.6-.48.58-1.28.89-1.9s.69-1.46,1-2.19,1-1.23.84-2.14a.52.52,0,0,1,.2-.47c.31-.32.52-1.63.2-1.88-.66-.54-.35-1.24-.44-1.87,0-.31.09-.67-.23-.88s-.28-.48-.3-.78c-.11-1.66-.13-3.33-.13-5a1.28,1.28,0,0,0-.11-.72,2.92,2.92,0,0,1-.41-1.81c0-1.61,0-3.21,0-4.81,0-.27.08-.6-.15-.78-.4-.32-.36-.74-.36-1.17,0-1.85,0-3.7,0-5.55,0-.26.08-.58-.18-.76s-.33-.56-.33-.9c0-1.29,0-2.57,0-3.86,0-1-.11-1.13-1.12-1.13ZM118,101.2h6.44c.24,0,.57.1.69-.14.39-.71,1.28-1.13,1.24-2.1a.45.45,0,0,1,.17-.34,1.06,1.06,0,0,0,.44-.87c0-.18,0-.37.19-.49a3,3,0,0,0,.82-1.7c.2-.73.87-1.25.81-2a.3.3,0,0,1,.11-.17c.6-.48.49-1.29.89-1.89a24.62,24.62,0,0,1,1.12-2.24.86.86,0,0,0,0-1.07c-.25-.32-.52,0-.72.21a1,1,0,0,1-.8.28H116.05c-.23,0-.52.06-.62-.18-.2-.51-.61-.44-1-.45l-2,0c-.22,0-.48,0-.58-.24-.23-.57-.7-.43-1.09-.36s-.58.44-.6.87a2.22,2.22,0,0,1-.42,1c-.26.43-.75.76-.76,1.34s-.53,1.28-.76,1.92a3.52,3.52,0,0,1-.63,1.34,4.25,4.25,0,0,0-.84,1.9c-.24.7-.9,1.23-.83,2,0,0-.07.11-.13.15-.58.35-.16,1.26-.85,1.56a.22.22,0,0,0,0,.19c.42.29.53.94,1.28.88,1.1-.08,2.21,0,3.32,0,.36,0,.79,0,1,.26a1.07,1.07,0,0,0,1,.36ZM227.72,44.3h0c0,1.17,0,2.34,0,3.52,0,.6.16.83.8.82,1.83,0,3.66,0,5.48,0,.53,0,1.15.2,1.45-.51,0-.07.2-.1.31-.11.55-.08,1.2.14,1.49-.6,0-.06.21-.08.32-.09.63-.07.84-.91,1.55-.85,0,0,.09-.19.12-.3a5.67,5.67,0,0,1,.46-.85c.21-.46.74-.72.74-1.29,0-1.33,0-2.66,0-4a.74.74,0,0,0-.2-.55,7.1,7.1,0,0,0-.91-1.1c-.7-.52-.93-1.58-2-1.7a.33.33,0,0,1-.25-.19c-.13-.45-.49-.41-.82-.42-1.43,0-2.85,0-4.27,0-.77,0-1.12.9-1.9.83,0,0,0,0,0,.05-.48,1-1.79,1.56-1.88,2.86-.67.4-.45,1.07-.46,1.64C227.7,42.4,227.72,43.35,227.72,44.3Z"/><path d="M212,55.06c0,1.63,0,3.26,0,4.88,0,.58-.19.81-.78.8h-7.38a1.33,1.33,0,0,1-1.14-1.29c.08-3.18.1-6.36,0-9.55a1.35,1.35,0,0,1,1.16-1.26c2.23,0,4.47,0,6.7,0A1.43,1.43,0,0,1,212,50.05c0,1.67,0,3.34,0,5Z"/></g></g></svg>